<?xml version="1.0" encoding="UTF-8"?>
<svg width="700pt" height="700pt" version="1.1" viewBox="0 0 700 700" xmlns="http://www.w3.org/2000/svg">
 <path d="m525 0h-350c-9.2812 0-18.184 3.6875-24.75 10.25-6.5625 6.5664-10.25 15.469-10.25 24.75v490c0 9.2812 3.6875 18.184 10.25 24.75 6.5664 6.5625 15.469 10.25 24.75 10.25h350c9.2812 0 18.184-3.6875 24.75-10.25 6.5625-6.5664 10.25-15.469 10.25-24.75v-490c0-9.2812-3.6875-18.184-10.25-24.75-6.5664-6.5625-15.469-10.25-24.75-10.25zm-35 402.5c0 4.6406-1.8438 9.0938-5.125 12.375s-7.7344 5.125-12.375 5.125h-245c-4.6406 0-9.0938-1.8438-12.375-5.125s-5.125-7.7344-5.125-12.375v-9.4141c0.003906-12.148 4.2188-23.922 11.926-33.309 7.7109-9.3867 18.438-15.812 30.355-18.176l48.336-7h-0.003907c4.1719-0.59766 7.9844-2.6797 10.742-5.8633 2.7578-3.1836 4.2734-7.2539 4.2734-11.465v-8.0508c-6.4414-6.3359-15.051-29.262-21-35v0.003906c-9.5625-8.0703-16.527-18.785-20.02-30.801-3.5-16.695 3.5-18.797 3.5-24.5-1.1484-15.207-0.35938-30.496 2.3438-45.5 5.8633-13.715 15.527-25.469 27.848-33.871 12.324-8.4023 26.793-13.105 41.699-13.555 11.484 0.10156 22.754 3.1133 32.762 8.75 7 3.9219 20.648 2.5195 26.18 8.4688 7.0078 8.6289 10.203 19.734 8.8555 30.766 3.125 14.73 4.4297 29.789 3.8828 44.836 0 5.7734 7 7.875 3.5 24.5-3.4844 12.02-10.449 22.734-20.02 30.801-5.9141 5.7734-14.387 28.734-21 35v8.0508c0 4.2109 1.5156 8.2812 4.2734 11.461 2.7617 3.1836 6.5742 5.2656 10.742 5.8633l48.336 7c11.969 2.3242 22.758 8.7461 30.512 18.16 7.7539 9.4141 11.988 21.234 11.977 33.43z"/>
</svg>
